<svg width="683" height="683" xmlns="http://www.w3.org/2000/svg"><path d="M355.033 16.693C297.73 61.068 235.611 126.053 194.714 184.41c-74.031 105.635-99.226 207.935-75.277 305.643 11.727 47.843 36.761 94.573 75.312 140.584 12.57 15.002 36.944 40.688 37.806 39.841.318-.313-.388-4.923-1.569-10.245-4.043-18.212-5.693-35.107-5.671-58.055.03-31.156 3.913-53.772 13.199-76.869 7.658-19.048 17.155-33.715 32.668-50.45 28.254-30.48 41.963-58.187 45.237-91.424 1.485-15.081.229-32.068-3.318-44.859-1.199-4.322-1.971-8.066-1.716-8.32.663-.663 19.89 15.153 31.047 25.539 13.387 12.461 30.577 32.816 41.762 49.452 19.928 29.637 32.397 64.106 32.427 89.643.005 3.913.456 7.115 1.003 7.115 1.676 0 16.668-16.387 21.476-23.476 13.614-20.067 24.086-48.526 27.104-73.653.438-3.647 1.213-6.208 1.721-5.691 1.243 1.262 5.135 21.02 6.912 35.089 2.094 16.578 1.812 58.372-.506 75.13-8.764 63.341-38.476 117.849-86.159 158.064l-5.123 4.32 7.399-2.819c18.658-7.107 46.314-21.866 64.885-34.625 64.624-44.398 102.961-101.224 113.123-167.676 4.023-26.303 3.117-62.37-2.156-85.882-8.376-37.347-22.946-64.768-59.949-112.827-9.109-11.83-19.758-26.376-23.664-32.324-18.037-27.461-26.35-51.43-27.638-79.683l-.285-6.261-5.56 13.091c-19.179 45.153-29.387 97.297-27.634 141.153.577 14.432 3.139 38.22 4.842 44.964.962 3.81-9.351-8.038-16.678-19.16-16.646-25.267-29.484-56.815-39.109-96.105-13.651-55.727-16.915-132.534-8.694-204.606 1.143-10.018 1.95-18.356 1.795-18.531-.155-.174-4.067 2.614-8.693 6.196" fill="url(#radialGradient1)" fill-rule="evenodd"/></svg>